<svg width="27" height="16" viewBox="0 0 27 16" fill="none" xmlns="http://www.w3.org/2000/svg">
<g clip-path="url(#clip0_260_581)">
<path d="M13.2999 0C9.75364 0 7.53712 1.77319 6.65057 5.31948C7.98044 3.54629 9.53192 2.88135 11.3051 3.32468C12.3168 3.57756 13.0399 4.31158 13.8403 5.12395C15.1442 6.44748 16.6532 7.97922 19.9493 7.97922C23.4956 7.97922 25.7121 6.20603 26.5986 2.65974C25.2688 4.43294 23.7173 5.09787 21.9441 4.65455C20.9324 4.40166 20.2093 3.66764 19.4089 2.85527C18.105 1.53174 16.596 0 13.2999 0ZM6.65057 7.97922C3.10429 7.97922 0.887766 9.75242 0.0012207 13.2987C1.33109 11.5255 2.88257 10.8606 4.65577 11.3039C5.6674 11.5568 6.39052 12.2908 7.19093 13.1032C8.49483 14.4267 10.0038 15.9584 13.2999 15.9584C16.8462 15.9584 19.0627 14.1852 19.9493 10.639C18.6194 12.4122 17.0679 13.0771 15.2947 12.6338C14.2831 12.3809 13.56 11.6469 12.7596 10.8345C11.4557 9.51096 9.94668 7.97922 6.65057 7.97922Z" fill="url(#paint0_linear_260_581)"/>
</g>
<defs>
<linearGradient id="paint0_linear_260_581" x1="-0.737655" y1="5.1067" x2="22.2335" y2="18.3515" gradientUnits="userSpaceOnUse">
<stop stop-color="#2298BD"/>
<stop offset="1" stop-color="#0ED7B5"/>
</linearGradient>
<clipPath id="clip0_260_581">
<rect width="26.6" height="16" fill="white"/>
</clipPath>
</defs>
</svg>
